<?xml version="1.0" encoding="UTF-8" standalone="no"?>
<!-- Created with Inkscape (http://www.inkscape.org/) -->

<svg
   width="490.28479mm"
   height="480.27301mm"
   viewBox="0 0 490.28479 480.27301"
   version="1.1"
   id="svg1"
   inkscape:version="1.3.2 (091e20e, 2023-11-25, custom)"
   sodipodi:docname="TB banner &amp; button click states.svg"
   xml:space="preserve"
   xmlns:inkscape="http://www.inkscape.org/namespaces/inkscape"
   xmlns:sodipodi="http://sodipodi.sourceforge.net/DTD/sodipodi-0.dtd"
   xmlns="http://www.w3.org/2000/svg"
   xmlns:svg="http://www.w3.org/2000/svg"><sodipodi:namedview
     id="namedview1"
     pagecolor="#000000"
     bordercolor="#000000"
     borderopacity="0.25"
     inkscape:showpageshadow="2"
     inkscape:pageopacity="0.0"
     inkscape:pagecheckerboard="0"
     inkscape:deskcolor="#000000"
     inkscape:document-units="mm"
     inkscape:zoom="0.16"
     inkscape:cx="-11737.5"
     inkscape:cy="8162.5"
     inkscape:window-width="2428"
     inkscape:window-height="1360"
     inkscape:window-x="-7"
     inkscape:window-y="0"
     inkscape:window-maximized="0"
     inkscape:current-layer="layer1" /><defs
     id="defs1" /><g
     inkscape:label="Layer 1"
     inkscape:groupmode="layer"
     id="layer1"
     transform="translate(6916.3542,-781.86698)"><path
       d="m -6795.3599,1227.0341 v -5e-4 l -57.8642,-57.8636 57.8637,57.8641 z"
       style="fill:#1a505e;fill-rule:evenodd;stroke-width:2.80001;stroke-linecap:round;stroke-linejoin:round"
       id="path88"
       inkscape:export-filename="..\OneDrive\Documents\cunting your nan\TT Icon.svg"
       inkscape:export-xdpi="96"
       inkscape:export-ydpi="96" /><path
       d="m -6853.2241,1169.1695 57.8642,57.8641 v 5e-4 l 79.0432,-21.1801 21.1801,-79.0437 -57.8641,-57.8637 -79.0438,21.1796 z"
       style="fill:#1f6172;fill-opacity:1;fill-rule:evenodd;stroke-width:2.80001;stroke-linecap:round;stroke-linejoin:round"
       id="path87" /><path
       d="m -6804.7666,1262.14 9.4067,-35.1059 h -5e-4 l -57.8637,-57.8641 v -5e-4 l -63.13,16.9157 v 4.1414 c 2e-4,39.8398 32.0738,71.9133 71.9135,71.9134 z"
       style="fill:#2dd6ff;fill-opacity:1;fill-rule:evenodd;stroke-width:2.80001;stroke-linecap:round;stroke-linejoin:round"
       id="path86" /><path
       d="m -6576.6105,873.96781 79.0438,-21.1796 18.3245,-68.3875 c -5.9805,-1.6017 -12.2406,-2.5337 -18.74,-2.5337 h -127.3183 l -9.1736,34.2372 z"
       style="fill:#7fc9dc;fill-opacity:1;fill-rule:evenodd;stroke-width:2.80001;stroke-linecap:round;stroke-linejoin:round"
       id="path85" /><path
       d="m -6439.7025,910.65191 -57.8642,-57.8637 -79.0438,21.1796 -21.1795,79.0438 57.8641,57.86359 79.0438,-21.17899 21.1796,-79.0438 z"
       style="fill:#1a505e;fill-rule:evenodd;stroke-width:2.80001;stroke-linecap:round;stroke-linejoin:round"
       id="path84" /><path
       d="m -6426.0693,906.99891 v -53.219 c 1e-4,-33.3403 -22.4945,-61.1631 -53.1729,-69.3792 l -18.3245,68.3875 57.8642,57.8637 z"
       style="fill:#e4faff;fill-opacity:1;fill-rule:evenodd;stroke-width:2.80001;stroke-linecap:round;stroke-linejoin:round"
       id="path83" /><path
       d="m -6832.044,1090.1262 v -5e-4 l -57.8641,-57.8642 -26.446,7.0859 v 146.7378 l 63.13,-16.9157 21.1796,-79.0433 z"
       style="fill:#8ccedf;fill-opacity:1;fill-rule:evenodd;stroke-width:2.80001;stroke-linecap:round;stroke-linejoin:round"
       id="path91" /><path
       d="m -6832.044,1090.1262 h -5e-4 l -21.1796,79.0433 z"
       style="fill:#1a505e;fill-rule:evenodd;stroke-width:2.80001;stroke-linecap:round;stroke-linejoin:round"
       id="path90" /><path
       d="m -6844.4406,781.86701 c -39.8397,-1e-4 -71.9132,32.0731 -71.9135,71.9129 v 185.56749 l 26.446,-7.0859 57.8641,57.8642 v 5e-4 l 79.0433,-21.1796 57.8641,57.8637 -21.1801,79.0437 -79.0432,21.1801 -9.4067,35.1059 306.7839,-5e-4 c 39.8401,0 71.9133,-32.0728 71.9134,-71.9124 V 906.99891 l -13.6332,3.653 v 5e-4 l -21.1796,79.0438 -79.0438,21.17899 -57.8641,-57.86359 21.1795,-79.0438 -57.8636,-57.8636 9.1736,-34.2372 z"
       style="fill:#339fbb;fill-opacity:1;fill-rule:evenodd;stroke-width:2.80001;stroke-linecap:round;stroke-linejoin:round"
       id="path89" /><path
       d="m -6834.1343,922.50531 v 43.8702 h 58.7297 v 154.25659 h 47.2646 V 966.37551 h 58.5894 v -43.8702 z"
       style="font-weight:bold;font-size:50.8px;font-family:'Mark Pro';-inkscape-font-specification:'Mark Pro Bold';text-align:center;text-anchor:middle;fill:#64bed5;fill-opacity:1;fill-rule:evenodd;stroke-width:15.6005;stroke-linecap:round;stroke-linejoin:round"
       id="path10-9-5-9" /><path
       d="m -6834.1343,922.50531 v 43.8702 l 164.5837,-43.8702 z"
       style="fill:#ffffff;fill-opacity:1;fill-rule:evenodd;stroke-width:34.2698;stroke-linecap:round;stroke-linejoin:round"
       id="path42-3-5-6"
       sodipodi:nodetypes="cccc" /><path
       d="m -6670.6128,922.50531 v 36.9375 h 61.4191 v 161.18929 h 39.4855 V 959.44281 h 61.4192 v -36.9375 z"
       style="font-weight:bold;font-size:50.8px;font-family:'Mark Pro';-inkscape-font-specification:'Mark Pro Bold';fill:#ffffff;fill-opacity:1;fill-rule:evenodd;stroke-width:15.6006;stroke-linecap:round;stroke-linejoin:round"
       id="path45-0-4" /><path
       style="fill:#64bed5;fill-opacity:1;fill-rule:evenodd;stroke-width:15.6006;stroke-linecap:round;stroke-linejoin:round"
       d="m -6508.289,959.44281 h -162.3233 l 162.3233,-36.9375 z"
       id="path63-4-0" /></g></svg>
