<?xml version="1.0" encoding="UTF-8"?>
<svg id="svg1" xmlns="http://www.w3.org/2000/svg" xmlns:xlink="http://www.w3.org/1999/xlink" xmlns:svg="http://www.w3.org/2000/svg" xmlns:sodipodi="http://sodipodi.sourceforge.net/DTD/sodipodi-0.dtd" xmlns:inkscape="http://www.inkscape.org/namespaces/inkscape" version="1.1" viewBox="0 0 545.78 138.89">
  <!-- Generator: Adobe Illustrator 29.7.1, SVG Export Plug-In . SVG Version: 2.1.1 Build 8)  -->
  <defs>
    <style>
      .st0 {
        fill: #020202;
      }

      .st0, .st1, .st2, .st3, .st4, .st5, .st6 {
        fill-rule: evenodd;
      }

      .st7 {
        opacity: .45;
      }

      .st1 {
        fill: url(#linear-gradient);
      }

      .st2 {
        fill: url(#linear-gradient1);
      }

      .st3 {
        fill: url(#linear-gradient2);
      }

      .st4 {
        fill: url(#linear-gradient4);
      }

      .st5 {
        fill: url(#linear-gradient5);
      }

      .st6 {
        fill: url(#linear-gradient3);
      }
    </style>
    <linearGradient id="linear-gradient" x1="-1044.42" y1="374.95" x2="-923.23" y2="374.95" gradientTransform="translate(3756.06 -1040.63) scale(3.47 2.83)" gradientUnits="userSpaceOnUse">
      <stop offset=".44" stop-color="#99b6d2" stop-opacity=".41"/>
      <stop offset=".88" stop-color="#99b6d2" stop-opacity="0"/>
    </linearGradient>
    <linearGradient id="linear-gradient1" x1="-960.42" y1="396.91" x2="-838.21" y2="396.91" gradientTransform="translate(2841.67 -1040.63) scale(2.83)" gradientUnits="userSpaceOnUse">
      <stop offset=".35" stop-color="#fff"/>
      <stop offset=".65" stop-color="#fff"/>
    </linearGradient>
    <linearGradient id="linear-gradient2" x1="467.72" y1="9.8" x2="472.6" y2="9.8" gradientTransform="translate(0 140) scale(1 -1)" gradientUnits="userSpaceOnUse">
      <stop offset=".5" stop-color="#fff"/>
      <stop offset=".65" stop-color="#fff"/>
    </linearGradient>
    <linearGradient id="linear-gradient3" x1="497.63" y1="18.54" x2="514.4" y2="18.54" gradientTransform="translate(0 140) scale(1 -1)" gradientUnits="userSpaceOnUse">
      <stop offset=".35" stop-color="#fff"/>
      <stop offset=".5" stop-color="#fff"/>
    </linearGradient>
    <linearGradient id="linear-gradient4" x1="477.03" y1="18.54" x2="493.8" y2="18.54" gradientTransform="translate(0 140) scale(1 -1)" gradientUnits="userSpaceOnUse">
      <stop offset=".5" stop-color="#fff"/>
      <stop offset=".65" stop-color="#fff"/>
    </linearGradient>
    <linearGradient id="linear-gradient5" x1="-999.39" y1="485.7" x2="-963.87" y2="485.7" gradientTransform="translate(2836.84 -1314.32) scale(2.83)" gradientUnits="userSpaceOnUse">
      <stop offset=".5" stop-color="#fff"/>
      <stop offset=".65" stop-color="#fff"/>
    </linearGradient>
  </defs>
  <sodipodi:namedview id="namedview1" bordercolor="#000000" borderopacity="0" inkscape:current-layer="layer1" inkscape:cx="-500.22423" inkscape:cy="-1.7520989" inkscape:deskcolor="#000000" inkscape:document-units="mm" inkscape:pagecheckerboard="true" inkscape:pageopacity="0.0" inkscape:showpageshadow="2" inkscape:window-height="1360" inkscape:window-maximized="0" inkscape:window-width="2428" inkscape:window-x="-7" inkscape:window-y="0" inkscape:zoom="0.57074405" pagecolor="#000000" showborder="false" showgrid="false">
    <inkscape:grid id="grid8" color="#0099e5" dotted="false" empcolor="#0099e5" empopacity="0.30196078" empspacing="5" gridanglex="30" gridanglez="30" opacity="0.14901961" originx="116.69235" originy="66.24684" spacingx="0.99999998" spacingy="1" units="mm" visible="false"/>
  </sodipodi:namedview>
  <g id="layer1" class="st7" inkscape:groupmode="layer" inkscape:label="Layer 1">
    <path id="path9" class="st0" d="M135.25,40.62c174.8-79.06,28.92,61.87,420.53-33.3C143.45,93.65,298.83-60.46,135.25,40.62Z" sodipodi:nodetypes="ccc"/>
    <path id="path1" class="st0" d="M194.05,33.91v101.41h11.53V33.91h-11.53ZM125.28,49.57v85.76h11.81v-42.48h36.42v-10.1h-36.42v-25.65l8.6-7.53h30.78v-10.17h-39.37l-11.81,10.17h-.01ZM394.79,46.56l-11.53,3.55v16.72h-12.38v9.37h12.38v40.54c0,13.38,6.3,20.07,18.91,20.07,4.45,0,8.04-.71,10.76-2.14v-9.37c-2.11,1.52-4.62,2.27-7.52,2.27-3.8,0-6.52-.98-8.16-2.94s-2.46-5.24-2.46-9.83v-38.6h18.14v-9.37h-18.14v-20.27h0ZM257.19,65.22c-9.42,0-17.32,3.37-23.7,10.1-6.33,6.69-9.49,15.36-9.49,26.02,0,11.28,2.91,20.05,8.72,26.29,5.81,6.2,13.8,9.3,23.98,9.3s18.77-2.19,25.1-6.56v-10.3c-6.8,5.08-14.25,7.63-22.36,7.63-7.22,0-12.89-2.07-17.02-6.22-4.12-4.15-6.28-10.03-6.47-17.66h50.84v-5.75c0-10.3-2.58-18.35-7.73-24.15-5.16-5.8-12.45-8.7-21.87-8.7h0ZM256.98,74.45c5.62,0,10.01,1.76,13.15,5.28,3.19,3.52,4.8,8.45,4.85,14.78h-38.88c.89-5.98,3.23-10.81,7.03-14.52,3.8-3.7,8.41-5.55,13.85-5.55h0ZM332.5,65.22c-9.42,0-17.32,3.37-23.7,10.1-6.33,6.69-9.49,15.36-9.49,26.02,0,11.28,2.91,20.05,8.72,26.29,5.81,6.2,13.8,9.3,23.98,9.3s18.77-2.19,25.1-6.56v-10.3c-6.8,5.08-14.25,7.63-22.36,7.63-7.22,0-12.89-2.07-17.02-6.22-4.12-4.15-6.28-10.03-6.47-17.66h50.84v-5.75c0-10.3-2.58-18.35-7.73-24.15-5.16-5.8-12.45-8.7-21.87-8.7h0ZM332.28,74.45c5.62,0,10.01,1.76,13.15,5.28,3.19,3.52,4.8,8.45,4.85,14.78h-38.88c.89-5.98,3.23-10.81,7.03-14.52,3.8-3.7,8.41-5.55,13.85-5.55h0ZM451.68,65.22c-3.52,0-6.94.42-10.27,1.27-3.28.85-6.21,2.12-8.79,3.81-2.58,1.65-4.64,3.72-6.19,6.22-1.55,2.45-2.32,5.28-2.32,8.5,0,2.63.4,4.93,1.2,6.89.84,1.96,2.06,3.72,3.66,5.28,1.64,1.52,3.66,2.9,6.05,4.15,2.44,1.2,5.25,2.41,8.44,3.61,2.3.85,4.43,1.67,6.4,2.48,2.02.76,3.75,1.63,5.2,2.61,1.5.98,2.67,2.12,3.52,3.41.89,1.25,1.34,2.79,1.34,4.62,0,6.42-5.06,9.63-15.19,9.63-7.55,0-14.46-2.21-20.74-6.62v11.77c5.44,2.72,11.86,4.08,19.27,4.08,3.75,0,7.34-.4,10.76-1.2s6.45-2.03,9.07-3.68,4.71-3.72,6.26-6.22c1.59-2.5,2.39-5.44,2.39-8.83,0-2.77-.49-5.15-1.48-7.16-.94-2.01-2.3-3.77-4.08-5.28-1.78-1.56-3.94-2.94-6.47-4.15-2.53-1.25-5.39-2.45-8.58-3.61-2.39-.89-4.52-1.72-6.4-2.48-1.87-.76-3.47-1.61-4.78-2.54s-2.32-2.01-3.02-3.21c-.66-1.2-.98-2.7-.98-4.48,0-1.43.33-2.72.98-3.88.7-1.2,1.66-2.23,2.88-3.08,1.27-.85,2.77-1.49,4.5-1.94,1.73-.49,3.68-.74,5.84-.74,6.89,0,12.98,1.65,18.28,4.95v-11.1c-4.92-2.05-10.5-3.08-16.73-3.08h-.02Z"/>
    <path id="path12" class="st0" d="M474.13,130.67c-.67,0-1.24.23-1.72.7-.46.46-.7,1-.7,1.64s.23,1.18.7,1.64c.48.46,1.05.68,1.72.68s1.26-.23,1.74-.68c.48-.46.72-1,.72-1.64s-.24-1.18-.72-1.64c-.48-.47-1.06-.7-1.74-.7Z"/>
    <path id="path11" class="st0" d="M513.21,113.16c-3.51,0-6.32,1.06-8.43,3.19-2.1,2.11-3.16,4.92-3.16,8.41,0,3.13.97,5.69,2.92,7.66,1.96,1.96,4.53,2.94,7.71,2.94,2.35,0,4.38-.49,6.1-1.47v-3.23c-1.71,1.23-3.54,1.84-5.49,1.84-2.31,0-4.15-.72-5.53-2.15-1.36-1.44-2.05-3.4-2.05-5.88s.73-4.56,2.18-6.11c1.47-1.56,3.34-2.34,5.62-2.34,1.89,0,3.66.55,5.31,1.66v-3.48c-1.5-.69-3.22-1.04-5.18-1.04h0Z"/>
    <path id="path10" class="st0" d="M492.62,113.16c-3.51,0-6.32,1.06-8.43,3.19-2.1,2.11-3.16,4.92-3.16,8.41,0,3.13.97,5.69,2.92,7.66,1.96,1.96,4.53,2.94,7.71,2.94,2.35,0,4.38-.49,6.1-1.47v-3.23c-1.71,1.23-3.54,1.84-5.49,1.84-2.31,0-4.15-.72-5.53-2.15-1.36-1.44-2.05-3.4-2.05-5.88s.73-4.56,2.18-6.11c1.47-1.56,3.34-2.34,5.62-2.34,1.89,0,3.66.55,5.31,1.66v-3.48c-1.5-.69-3.22-1.04-5.18-1.04h0Z"/>
    <path id="path3-0" class="st0" d="M13.01,39.4c-2.01,0-3.02.96-3.02,2.87v41.5c0,1.92,1.01,2.87,3.02,2.87h6.64c2.01,0,3.02-.96,3.02-2.87v-16.41l7.52,17.05c.67,1.47,1.88,2.23,3.56,2.23h2.68c1.68,0,2.89-.77,3.56-2.23l7.58-17.11v16.47c0,1.92,1.01,2.87,3.02,2.87h6.64c2.01,0,3.02-.96,3.02-2.87v-41.5c0-1.92-1.01-2.87-3.02-2.87h-5.64c-1.68,0-2.82.7-3.56,2.17l-12.95,26.49-12.88-26.49c-.74-1.47-1.88-2.17-3.56-2.17h-5.64.01ZM70.86,39.4c-2.48,0-3.29,1.47-2.01,3.45l14.29,21.83v19.09c0,1.92,1.01,2.87,3.02,2.87h6.64c2.01,0,3.02-.96,3.02-2.87v-19.09l14.23-21.83c1.34-1.98.47-3.45-2.01-3.45h-7.98c-1.54,0-2.75.64-3.62,1.92l-6.98,10.66-6.98-10.66c-.87-1.28-2.08-1.92-3.62-1.92h-8Z"/>
  </g>
  <g id="layer11" inkscape:groupmode="layer" inkscape:label="Layer 1">
    <path id="path9-4" class="st1" d="M131.25,37.82c174.8-79.06,28.92,61.87,420.53-33.3C139.45,90.86,294.84-63.25,131.25,37.82h0Z" sodipodi:nodetypes="ccc"/>
    <path id="path1-6" class="st2" d="M190.06,31.12v101.41h11.53V31.12h-11.53ZM121.29,46.77v85.76h11.81v-42.48h36.42v-10.1h-36.42v-25.65l8.6-7.53h30.78v-10.17h-39.37l-11.81,10.17h-.01ZM390.8,43.76l-11.53,3.55v16.72h-12.38v9.37h12.38v40.54c0,13.38,6.3,20.07,18.91,20.07,4.45,0,8.04-.71,10.76-2.14v-9.37c-2.11,1.52-4.62,2.27-7.52,2.27-3.8,0-6.52-.98-8.16-2.94s-2.46-5.24-2.46-9.83v-38.6h18.14v-9.37h-18.14v-20.27ZM253.2,62.42c-9.42,0-17.32,3.37-23.7,10.1-6.33,6.69-9.49,15.36-9.49,26.02,0,11.28,2.91,20.05,8.72,26.29,5.81,6.2,13.8,9.3,23.98,9.3s18.77-2.19,25.1-6.56v-10.3c-6.8,5.08-14.25,7.63-22.36,7.63-7.22,0-12.89-2.07-17.02-6.22s-6.28-10.03-6.47-17.66h50.84v-5.75c0-10.3-2.58-18.35-7.73-24.15-5.16-5.8-12.45-8.7-21.87-8.7h0ZM252.98,71.66c5.62,0,10.01,1.76,13.15,5.28,3.19,3.52,4.8,8.45,4.85,14.78h-38.88c.89-5.98,3.23-10.81,7.03-14.52,3.8-3.7,8.41-5.55,13.85-5.55h0ZM328.5,62.42c-9.42,0-17.32,3.37-23.7,10.1-6.33,6.69-9.49,15.36-9.49,26.02,0,11.28,2.91,20.05,8.72,26.29,5.81,6.2,13.8,9.3,23.98,9.3s18.77-2.19,25.1-6.56v-10.3c-6.8,5.08-14.25,7.63-22.36,7.63-7.22,0-12.89-2.07-17.02-6.22-4.12-4.15-6.28-10.03-6.47-17.66h50.84v-5.75c0-10.3-2.58-18.35-7.73-24.15-5.16-5.8-12.45-8.7-21.87-8.7h0ZM328.29,71.66c5.62,0,10.01,1.76,13.15,5.28,3.19,3.52,4.8,8.45,4.85,14.78h-38.88c.89-5.98,3.23-10.81,7.03-14.52,3.8-3.7,8.41-5.55,13.85-5.55h0ZM447.68,62.42c-3.52,0-6.94.42-10.27,1.27-3.28.85-6.21,2.12-8.79,3.81-2.58,1.65-4.64,3.72-6.19,6.22-1.55,2.45-2.32,5.28-2.32,8.5,0,2.63.4,4.93,1.2,6.89.84,1.96,2.06,3.72,3.66,5.28,1.64,1.52,3.66,2.9,6.05,4.15,2.44,1.2,5.25,2.41,8.44,3.61,2.3.85,4.43,1.67,6.4,2.48,2.02.76,3.75,1.63,5.2,2.61,1.5.98,2.67,2.12,3.52,3.41.89,1.25,1.34,2.79,1.34,4.62,0,6.42-5.06,9.63-15.19,9.63-7.55,0-14.46-2.21-20.74-6.62v11.77c5.44,2.72,11.86,4.08,19.27,4.08,3.75,0,7.34-.4,10.76-1.2s6.45-2.03,9.07-3.68c2.62-1.65,4.71-3.72,6.26-6.22,1.59-2.5,2.39-5.44,2.39-8.83,0-2.77-.49-5.15-1.48-7.16-.94-2.01-2.3-3.77-4.08-5.28-1.78-1.56-3.94-2.94-6.47-4.15-2.53-1.25-5.39-2.45-8.58-3.61-2.39-.89-4.52-1.72-6.4-2.48-1.87-.76-3.47-1.61-4.78-2.54-1.31-.94-2.32-2.01-3.02-3.21-.66-1.2-.98-2.7-.98-4.48,0-1.43.33-2.72.98-3.88.7-1.2,1.66-2.23,2.88-3.08,1.27-.85,2.77-1.49,4.5-1.94,1.73-.49,3.68-.74,5.84-.74,6.89,0,12.98,1.65,18.28,4.95v-11.1c-4.92-2.05-10.5-3.08-16.73-3.08h-.02Z"/>
    <path id="path12-0" class="st3" d="M470.14,127.87c-.67,0-1.24.23-1.72.7-.46.46-.7,1-.7,1.64s.23,1.18.7,1.64c.48.46,1.05.68,1.72.68s1.26-.23,1.74-.68c.48-.46.72-1,.72-1.64s-.24-1.18-.72-1.64c-.48-.47-1.06-.7-1.74-.7Z"/>
    <path id="path11-9" class="st6" d="M509.22,110.36c-3.51,0-6.32,1.06-8.43,3.19-2.1,2.11-3.16,4.92-3.16,8.41,0,3.13.97,5.69,2.92,7.66,1.96,1.96,4.53,2.94,7.71,2.94,2.35,0,4.38-.49,6.1-1.47v-3.23c-1.71,1.23-3.54,1.84-5.49,1.84-2.31,0-4.15-.72-5.53-2.15-1.36-1.44-2.05-3.4-2.05-5.88s.73-4.56,2.18-6.11c1.47-1.56,3.34-2.34,5.62-2.34,1.89,0,3.66.55,5.31,1.66v-3.48c-1.5-.69-3.22-1.04-5.18-1.04h0Z"/>
    <path id="path10-2" class="st4" d="M488.62,110.36c-3.51,0-6.32,1.06-8.43,3.19-2.1,2.11-3.16,4.92-3.16,8.41,0,3.13.97,5.69,2.92,7.66,1.96,1.96,4.53,2.94,7.71,2.94,2.35,0,4.38-.49,6.1-1.47v-3.23c-1.71,1.23-3.54,1.84-5.49,1.84-2.31,0-4.15-.72-5.53-2.15-1.36-1.44-2.05-3.4-2.05-5.88s.73-4.56,2.18-6.11c1.47-1.56,3.34-2.34,5.62-2.34,1.89,0,3.66.55,5.31,1.66v-3.48c-1.5-.69-3.22-1.04-5.18-1.04h0Z"/>
    <path id="path3-0-6" class="st5" d="M9.02,36.6c-2.01,0-3.02.96-3.02,2.87v41.5c0,1.92,1.01,2.87,3.02,2.87h6.64c2.01,0,3.02-.96,3.02-2.87v-16.41l7.52,17.05c.67,1.47,1.88,2.23,3.56,2.23h2.68c1.68,0,2.89-.77,3.56-2.23l7.58-17.11v16.47c0,1.92,1.01,2.87,3.02,2.87h6.64c2.01,0,3.02-.96,3.02-2.87v-41.5c0-1.92-1.01-2.87-3.02-2.87h-5.64c-1.68,0-2.82.7-3.56,2.17l-12.95,26.49-12.88-26.49c-.74-1.47-1.88-2.17-3.56-2.17h-5.64.01ZM66.86,36.6c-2.48,0-3.29,1.47-2.01,3.45l14.29,21.83v19.09c0,1.92,1.01,2.87,3.02,2.87h6.64c2.01,0,3.02-.96,3.02-2.87v-19.09l14.23-21.83c1.34-1.98.47-3.45-2.01-3.45h-7.98c-1.54,0-2.75.64-3.62,1.92l-6.98,10.66-6.98-10.66c-.87-1.28-2.08-1.92-3.62-1.92h-8Z"/>
  </g>
  <sodipodi:namedview id="namedview1" bordercolor="#000000" borderopacity="0" inkscape:current-layer="layer1" inkscape:cx="-252.74026" inkscape:cy="-48.182719" inkscape:deskcolor="#000000" inkscape:document-units="mm" inkscape:pagecheckerboard="true" inkscape:pageopacity="0.0" inkscape:showpageshadow="2" inkscape:window-height="1360" inkscape:window-maximized="0" inkscape:window-width="2428" inkscape:window-x="-7" inkscape:window-y="0" inkscape:zoom="1.1414881" pagecolor="#000000" showborder="false" showgrid="false">
    <inkscape:grid id="grid8" color="#0099e5" dotted="false" empcolor="#0099e5" empopacity="0.30196078" empspacing="5" gridanglex="30" gridanglez="30" opacity="0.14901961" originx="115.61482" originy="-36.499427" spacingx="0.99999998" spacingy="1" units="mm" visible="false"/>
  </sodipodi:namedview>
</svg>