<?xml version="1.0" encoding="UTF-8"?>
<svg id="svg1" xmlns="http://www.w3.org/2000/svg" xmlns:xlink="http://www.w3.org/1999/xlink" xmlns:svg="http://www.w3.org/2000/svg" xmlns:sodipodi="http://sodipodi.sourceforge.net/DTD/sodipodi-0.dtd" xmlns:inkscape="http://www.inkscape.org/namespaces/inkscape" version="1.1" viewBox="0 0 545.78 138.89">
  <!-- Generator: Adobe Illustrator 29.7.1, SVG Export Plug-In . SVG Version: 2.1.1 Build 8)  -->
  <defs>
    <style>
      .st0 {
        fill: #99b6d2;
      }

      .st0, .st1, .st2, .st3, .st4 {
        fill-rule: evenodd;
      }

      .st1 {
        fill: #020202;
      }

      .st5 {
        opacity: .45;
      }

      .st2 {
        fill: url(#linear-gradient);
      }

      .st3 {
        fill: url(#linear-gradient1);
      }

      .st4 {
        fill: url(#linear-gradient2);
      }
    </style>
    <linearGradient id="linear-gradient" x1="-1051.55" y1="374.58" x2="-925" y2="374.58" gradientTransform="translate(3756.06 -1040.63) scale(3.47 2.83)" gradientUnits="userSpaceOnUse">
      <stop offset=".44" stop-color="#99b6d2" stop-opacity=".41"/>
      <stop offset=".85" stop-color="#99b6d2" stop-opacity="0"/>
    </linearGradient>
    <linearGradient id="linear-gradient1" x1="-964.2" y1="384.5" x2="-841.99" y2="422.7" gradientTransform="translate(2841.67 -1040.63) scale(2.83)" gradientUnits="userSpaceOnUse">
      <stop offset=".35" stop-color="#99b6d2"/>
      <stop offset=".5" stop-color="#fff"/>
      <stop offset=".65" stop-color="#99b6d2"/>
    </linearGradient>
    <linearGradient id="linear-gradient2" x1="-1001.47" y1="477.71" x2="-965.95" y2="495.23" gradientTransform="translate(2836.84 -1314.32) scale(2.83)" gradientUnits="userSpaceOnUse">
      <stop offset=".35" stop-color="#fff"/>
      <stop offset=".5" stop-color="#99b6d2"/>
      <stop offset=".65" stop-color="#fff"/>
    </linearGradient>
  </defs>
  <sodipodi:namedview id="namedview1" bordercolor="#000000" borderopacity="0" inkscape:current-layer="layer1" inkscape:cx="-252.74026" inkscape:cy="-48.182719" inkscape:deskcolor="#000000" inkscape:document-units="mm" inkscape:pagecheckerboard="true" inkscape:pageopacity="0.0" inkscape:showpageshadow="2" inkscape:window-height="1360" inkscape:window-maximized="0" inkscape:window-width="2428" inkscape:window-x="-7" inkscape:window-y="0" inkscape:zoom="1.1414881" pagecolor="#000000" showborder="false" showgrid="false">
    <inkscape:grid id="grid8" color="#0099e5" dotted="false" empcolor="#0099e5" empopacity="0.30196078" empspacing="5" gridanglex="30" gridanglez="30" opacity="0.14901961" originx="115.61482" originy="-36.499427" spacingx="0.99999998" spacingy="1" units="mm" visible="false"/>
  </sodipodi:namedview>
  <g id="layer1" class="st5" inkscape:groupmode="layer" inkscape:label="Layer 1">
    <path id="path9" class="st1" d="M128.97,40.42c174.8-83.09,28.92,65.02,420.53-35C137.17,96.16,292.56-65.82,128.97,40.42Z" sodipodi:nodetypes="ccc"/>
    <path id="path1" class="st1" d="M187.78,33.37v106.59h11.53V33.37h-11.53ZM119.01,49.83v90.14h11.81v-44.65h36.42v-10.62h-36.42v-26.96l8.6-7.91h30.78v-10.69h-39.37l-11.81,10.69h-.01ZM388.52,46.66l-11.53,3.73v17.58h-12.38v9.84h12.38v42.61c0,14.06,6.3,21.09,18.91,21.09,4.45,0,8.04-.75,10.76-2.25v-9.84c-2.11,1.59-4.62,2.39-7.52,2.39-3.8,0-6.52-1.03-8.16-3.09s-2.46-5.51-2.46-10.34v-40.57h18.14v-9.84h-18.14v-21.3h0ZM250.92,66.28c-9.42,0-17.32,3.54-23.7,10.62-6.33,7.03-9.49,16.15-9.49,27.35,0,11.86,2.91,21.07,8.72,27.63,5.81,6.52,13.8,9.77,23.98,9.77s18.77-2.3,25.1-6.89v-10.83c-6.8,5.34-14.25,8.02-22.36,8.02-7.22,0-12.89-2.18-17.02-6.54-4.12-4.36-6.28-10.55-6.47-18.56h50.84v-6.05c0-10.83-2.58-19.29-7.73-25.38-5.16-6.09-12.45-9.14-21.87-9.14h0ZM250.7,75.98c5.62,0,10.01,1.85,13.15,5.55,3.19,3.7,4.8,8.88,4.85,15.54h-38.88c.89-6.28,3.23-11.37,7.03-15.26s8.41-5.84,13.85-5.84h0ZM326.22,66.28c-9.42,0-17.32,3.54-23.7,10.62-6.33,7.03-9.49,16.15-9.49,27.35,0,11.86,2.91,21.07,8.72,27.63,5.81,6.52,13.8,9.77,23.98,9.77s18.77-2.3,25.1-6.89v-10.83c-6.8,5.34-14.25,8.02-22.36,8.02-7.22,0-12.89-2.18-17.02-6.54-4.12-4.36-6.28-10.55-6.47-18.56h50.84v-6.05c0-10.83-2.58-19.29-7.73-25.38-5.16-6.09-12.45-9.14-21.87-9.14h0ZM326.01,75.98c5.62,0,10.01,1.85,13.15,5.55,3.19,3.7,4.8,8.88,4.85,15.54h-38.88c.89-6.28,3.23-11.37,7.03-15.26s8.41-5.84,13.85-5.84h0ZM445.4,66.28c-3.52,0-6.94.45-10.27,1.34-3.28.89-6.21,2.23-8.79,4.01-2.58,1.73-4.64,3.91-6.19,6.54-1.55,2.58-2.32,5.55-2.32,8.93,0,2.77.4,5.18,1.2,7.24.84,2.06,2.06,3.91,3.66,5.55,1.64,1.59,3.66,3.05,6.05,4.36,2.44,1.27,5.25,2.53,8.44,3.8,2.3.89,4.43,1.76,6.4,2.6,2.02.8,3.75,1.71,5.2,2.74,1.5,1.03,2.67,2.23,3.52,3.59.89,1.31,1.34,2.93,1.34,4.85,0,6.75-5.06,10.13-15.19,10.13-7.55,0-14.46-2.32-20.74-6.96v12.37c5.44,2.86,11.86,4.29,19.27,4.29,3.75,0,7.34-.42,10.76-1.27,3.42-.84,6.45-2.13,9.07-3.87s4.71-3.91,6.26-6.54c1.59-2.62,2.39-5.72,2.39-9.28,0-2.91-.49-5.41-1.48-7.52-.94-2.11-2.3-3.96-4.08-5.55-1.78-1.64-3.94-3.09-6.47-4.36-2.53-1.31-5.39-2.58-8.58-3.8-2.39-.94-4.52-1.8-6.4-2.6-1.87-.8-3.47-1.69-4.78-2.67s-2.32-2.11-3.02-3.38c-.66-1.27-.98-2.84-.98-4.71,0-1.5.33-2.86.98-4.08.7-1.27,1.66-2.34,2.88-3.23,1.27-.89,2.77-1.57,4.5-2.04,1.73-.52,3.68-.77,5.84-.77,6.89,0,12.98,1.73,18.28,5.2v-11.67c-4.92-2.16-10.5-3.23-16.73-3.23h-.02Z"/>
    <path id="path12" class="st1" d="M467.86,135.07c-.67,0-1.24.25-1.72.74-.46.48-.7,1.05-.7,1.72s.23,1.24.7,1.72c.48.48,1.05.72,1.72.72s1.26-.24,1.74-.72c.48-.48.72-1.05.72-1.72s-.24-1.24-.72-1.72c-.48-.49-1.06-.74-1.74-.74Z"/>
    <path id="path11" class="st1" d="M506.94,116.67c-3.51,0-6.32,1.12-8.43,3.35-2.1,2.22-3.16,5.17-3.16,8.84,0,3.29.97,5.98,2.92,8.06,1.96,2.06,4.53,3.09,7.71,3.09,2.35,0,4.38-.52,6.1-1.55v-3.4c-1.71,1.29-3.54,1.94-5.49,1.94-2.31,0-4.15-.75-5.53-2.26-1.36-1.51-2.05-3.57-2.05-6.18s.73-4.8,2.18-6.42c1.47-1.64,3.34-2.46,5.62-2.46,1.89,0,3.66.58,5.31,1.74v-3.66c-1.5-.73-3.22-1.09-5.18-1.09h0Z"/>
    <path id="path10" class="st1" d="M486.34,116.67c-3.51,0-6.32,1.12-8.43,3.35-2.1,2.22-3.16,5.17-3.16,8.84,0,3.29.97,5.98,2.92,8.06,1.96,2.06,4.53,3.09,7.71,3.09,2.35,0,4.38-.52,6.1-1.55v-3.4c-1.71,1.29-3.54,1.94-5.49,1.94-2.31,0-4.15-.75-5.53-2.26-1.36-1.51-2.05-3.57-2.05-6.18s.73-4.8,2.18-6.42c1.47-1.64,3.34-2.46,5.62-2.46,1.89,0,3.66.58,5.31,1.74v-3.66c-1.5-.73-3.22-1.09-5.18-1.09h0Z"/>
    <path id="path3-0" class="st1" d="M6.74,39.14c-2.01,0-3.02,1.01-3.02,3.02v43.62c0,2.01,1.01,3.02,3.02,3.02h6.64c2.01,0,3.02-1.01,3.02-3.02v-17.25l7.52,17.92c.67,1.54,1.88,2.35,3.56,2.35h2.68c1.68,0,2.89-.81,3.56-2.35l7.58-17.98v17.31c0,2.01,1.01,3.02,3.02,3.02h6.64c2.01,0,3.02-1.01,3.02-3.02v-43.62c0-2.01-1.01-3.02-3.02-3.02h-5.64c-1.68,0-2.82.74-3.56,2.28l-12.95,27.85-12.88-27.85c-.74-1.54-1.88-2.28-3.56-2.28h-5.64,0ZM64.58,39.14c-2.48,0-3.29,1.54-2.01,3.62l14.29,22.95v20.06c0,2.01,1.01,3.02,3.02,3.02h6.64c2.01,0,3.02-1.01,3.02-3.02v-20.06l14.23-22.95c1.34-2.08.47-3.62-2.01-3.62h-7.98c-1.54,0-2.75.67-3.62,2.01l-6.98,11.21-6.98-11.21c-.87-1.34-2.08-2.01-3.62-2.01h-8Z"/>
  </g>
  <g id="layer11" inkscape:groupmode="layer" inkscape:label="Layer 1">
    <path id="path91" class="st2" d="M125.25,37.65c174.8-83.09,28.92,65.02,420.53-35C133.45,93.39,288.84-68.59,125.25,37.65Z" sodipodi:nodetypes="ccc"/>
    <path id="path13" class="st3" d="M184.06,30.6v106.59h11.53V30.6h-11.53ZM115.29,47.06v90.14h11.81v-44.65h36.42v-10.62h-36.42v-26.96l8.6-7.91h30.78v-10.69h-39.37l-11.81,10.69h-.01ZM384.8,43.89l-11.53,3.73v17.58h-12.38v9.84h12.38v42.61c0,14.06,6.3,21.09,18.91,21.09,4.45,0,8.04-.75,10.76-2.25v-9.84c-2.11,1.59-4.62,2.39-7.52,2.39-3.8,0-6.52-1.03-8.16-3.09s-2.46-5.51-2.46-10.34v-40.57h18.14v-9.84h-18.14v-21.3h0ZM247.2,63.51c-9.42,0-17.32,3.54-23.7,10.62-6.33,7.03-9.49,16.15-9.49,27.35,0,11.86,2.91,21.07,8.72,27.63,5.81,6.52,13.8,9.77,23.98,9.77s18.77-2.3,25.1-6.89v-10.83c-6.8,5.34-14.25,8.02-22.36,8.02-7.22,0-12.89-2.18-17.02-6.54-4.12-4.36-6.28-10.55-6.47-18.56h50.84v-6.05c0-10.83-2.58-19.29-7.73-25.38-5.16-6.09-12.45-9.14-21.87-9.14h0ZM246.98,73.21c5.62,0,10.01,1.85,13.15,5.55,3.19,3.7,4.8,8.88,4.85,15.54h-38.88c.89-6.28,3.23-11.37,7.03-15.26s8.41-5.84,13.85-5.84h0ZM322.5,63.51c-9.42,0-17.32,3.54-23.7,10.62-6.33,7.03-9.49,16.15-9.49,27.35,0,11.86,2.91,21.07,8.72,27.63,5.81,6.52,13.8,9.77,23.98,9.77s18.77-2.3,25.1-6.89v-10.83c-6.8,5.34-14.25,8.02-22.36,8.02-7.22,0-12.89-2.18-17.02-6.54-4.12-4.36-6.28-10.55-6.47-18.56h50.84v-6.05c0-10.83-2.58-19.29-7.73-25.38-5.16-6.09-12.45-9.14-21.87-9.14h0ZM322.29,73.21c5.62,0,10.01,1.85,13.15,5.55,3.19,3.7,4.8,8.88,4.85,15.54h-38.88c.89-6.28,3.23-11.37,7.03-15.26s8.41-5.84,13.85-5.84h0ZM441.68,63.51c-3.52,0-6.94.45-10.27,1.34-3.28.89-6.21,2.23-8.79,4.01-2.58,1.73-4.64,3.91-6.19,6.54-1.55,2.58-2.32,5.55-2.32,8.93,0,2.77.4,5.18,1.2,7.24.84,2.06,2.06,3.91,3.66,5.55,1.64,1.59,3.66,3.05,6.05,4.36,2.44,1.27,5.25,2.53,8.44,3.8,2.3.89,4.43,1.76,6.4,2.6,2.02.8,3.75,1.71,5.2,2.74,1.5,1.03,2.67,2.23,3.52,3.59.89,1.31,1.34,2.93,1.34,4.85,0,6.75-5.06,10.13-15.19,10.13-7.55,0-14.46-2.32-20.74-6.96v12.37c5.44,2.86,11.86,4.29,19.27,4.29,3.75,0,7.34-.42,10.76-1.27,3.42-.84,6.45-2.13,9.07-3.87s4.71-3.91,6.26-6.54c1.59-2.62,2.39-5.72,2.39-9.28,0-2.91-.49-5.41-1.48-7.52-.94-2.11-2.3-3.96-4.08-5.55-1.78-1.64-3.94-3.09-6.47-4.36-2.53-1.31-5.39-2.58-8.58-3.8-2.39-.94-4.52-1.8-6.4-2.6-1.87-.8-3.47-1.69-4.78-2.67s-2.32-2.11-3.02-3.38c-.66-1.27-.98-2.84-.98-4.71,0-1.5.33-2.86.98-4.08.7-1.27,1.66-2.34,2.88-3.23,1.27-.89,2.77-1.57,4.5-2.04,1.73-.52,3.68-.77,5.84-.77,6.89,0,12.98,1.73,18.28,5.2v-11.67c-4.92-2.16-10.5-3.23-16.73-3.23h-.02Z"/>
    <path id="path121" class="st0" d="M464.14,132.3c-.67,0-1.24.25-1.72.74-.46.48-.7,1.05-.7,1.72s.23,1.24.7,1.72c.48.48,1.05.72,1.72.72s1.26-.24,1.74-.72c.48-.48.72-1.05.72-1.72s-.24-1.24-.72-1.72c-.48-.49-1.06-.74-1.74-.74Z"/>
    <path id="path111" class="st0" d="M503.22,113.9c-3.51,0-6.32,1.12-8.43,3.35-2.1,2.22-3.16,5.17-3.16,8.84,0,3.29.97,5.98,2.92,8.06,1.96,2.06,4.53,3.09,7.71,3.09,2.35,0,4.38-.52,6.1-1.55v-3.4c-1.71,1.29-3.54,1.94-5.49,1.94-2.31,0-4.15-.75-5.53-2.26-1.36-1.51-2.05-3.57-2.05-6.18s.73-4.8,2.18-6.42c1.47-1.64,3.34-2.46,5.62-2.46,1.89,0,3.66.58,5.31,1.74v-3.66c-1.5-.73-3.22-1.09-5.18-1.09h0Z"/>
    <path id="path101" class="st0" d="M482.62,113.9c-3.51,0-6.32,1.12-8.43,3.35-2.1,2.22-3.16,5.17-3.16,8.84,0,3.29.97,5.98,2.92,8.06,1.96,2.06,4.53,3.09,7.71,3.09,2.35,0,4.38-.52,6.1-1.55v-3.4c-1.71,1.29-3.54,1.94-5.49,1.94-2.31,0-4.15-.75-5.53-2.26-1.36-1.51-2.05-3.57-2.05-6.18s.73-4.8,2.18-6.42c1.47-1.64,3.34-2.46,5.62-2.46,1.89,0,3.66.58,5.31,1.74v-3.66c-1.5-.73-3.22-1.09-5.18-1.09h0Z"/>
    <path id="path3-01" class="st4" d="M3.02,36.37c-2.01,0-3.02,1.01-3.02,3.02v43.62c0,2.01,1.01,3.02,3.02,3.02h6.64c2.01,0,3.02-1.01,3.02-3.02v-17.25l7.52,17.92c.67,1.54,1.88,2.35,3.56,2.35h2.68c1.68,0,2.89-.81,3.56-2.35l7.58-17.98v17.31c0,2.01,1.01,3.02,3.02,3.02h6.64c2.01,0,3.02-1.01,3.02-3.02v-43.62c0-2.01-1.01-3.02-3.02-3.02h-5.64c-1.68,0-2.82.74-3.56,2.28l-12.95,27.85-12.88-27.85c-.74-1.54-1.88-2.28-3.56-2.28,0,0-5.63,0-5.63,0ZM60.86,36.37c-2.48,0-3.29,1.54-2.01,3.62l14.29,22.95v20.06c0,2.01,1.01,3.02,3.02,3.02h6.64c2.01,0,3.02-1.01,3.02-3.02v-20.06l14.23-22.95c1.34-2.08.47-3.62-2.01-3.62h-7.98c-1.54,0-2.75.67-3.62,2.01l-6.98,11.21-6.98-11.21c-.87-1.34-2.08-2.01-3.62-2.01h-8Z"/>
  </g>
</svg>